<svg width="1431" height="810" viewBox="0 0 1431 810" fill="none" xmlns="http://www.w3.org/2000/svg">
<rect x="-9" width="1440" height="810" fill="#C4C4C4"/>
<rect x="-9" width="1440" height="810" fill="#C4C4C4"/>
<path d="M91.4541 279C77.599 307.8 93.3784 318.333 103 320" stroke="black" stroke-width="3"/>
<path d="M212.454 632C198.599 660.8 214.378 671.333 224 673" stroke="black" stroke-width="3"/>
<path d="M205 278C198.667 268.333 194.6 249.6 229 252" stroke="black" stroke-width="3"/>
<path d="M334 536C327.667 526.333 323.6 507.6 358 510" stroke="black" stroke-width="3"/>
<path d="M1240.73 465.79C1247.06 475.456 1251.13 494.19 1216.73 491.79" stroke="black" stroke-width="3"/>
<path d="M716 368C722.333 377.667 726.4 396.4 692 394" stroke="black" stroke-width="3"/>
<line x1="89" y1="60.5" x2="138" y2="60.5" stroke="black" stroke-width="3"/>
<line x1="1025" y1="32.5" x2="976" y2="32.5" stroke="black" stroke-width="3"/>
<line x1="218" y1="318.5" x2="267" y2="318.5" stroke="black" stroke-width="3"/>
<line x1="1154" y1="277.5" x2="1105" y2="277.5" stroke="black" stroke-width="3"/>
<line x1="742" y1="280.5" x2="693" y2="280.5" stroke="black" stroke-width="3"/>
<path d="M285.061 111.061C285.646 110.475 285.646 109.525 285.061 108.939L275.515 99.3934C274.929 98.8076 273.979 98.8076 273.393 99.3934C272.808 99.9792 272.808 100.929 273.393 101.515L281.879 110L273.393 118.485C272.808 119.071 272.808 120.021 273.393 120.607C273.979 121.192 274.929 121.192 275.515 120.607L285.061 111.061ZM141 111.5H284V108.5H141V111.5Z" fill="black"/>
<path d="M1026.94 64.9393C1026.35 65.5251 1026.35 66.4749 1026.94 67.0607L1036.49 76.6066C1037.07 77.1924 1038.02 77.1924 1038.61 76.6066C1039.19 76.0208 1039.19 75.0711 1038.61 74.4853L1030.12 66L1038.61 57.5147C1039.19 56.9289 1039.19 55.9792 1038.61 55.3934C1038.02 54.8076 1037.07 54.8076 1036.49 55.3934L1026.94 64.9393ZM1171 64.5L1028 64.5V67.5L1171 67.5V64.5Z" fill="black"/>
<path d="M472.939 408.939C472.354 409.525 472.354 410.475 472.939 411.061L482.485 420.607C483.071 421.192 484.021 421.192 484.607 420.607C485.192 420.021 485.192 419.071 484.607 418.485L476.121 410L484.607 401.515C485.192 400.929 485.192 399.979 484.607 399.393C484.021 398.808 483.071 398.808 482.485 399.393L472.939 408.939ZM617 408.5H474V411.5H617V408.5Z" fill="black"/>
<path d="M414.061 369.061C414.646 368.475 414.646 367.525 414.061 366.939L404.515 357.393C403.929 356.808 402.979 356.808 402.393 357.393C401.808 357.979 401.808 358.929 402.393 359.515L410.879 368L402.393 376.485C401.808 377.071 401.808 378.021 402.393 378.607C402.979 379.192 403.929 379.192 404.515 378.607L414.061 369.061ZM270 369.5H413V366.5H270V369.5Z" fill="black"/>
<path d="M863.061 220.061C863.646 219.475 863.646 218.525 863.061 217.939L853.515 208.393C852.929 207.808 851.979 207.808 851.393 208.393C850.808 208.979 850.808 209.929 851.393 210.515L859.879 219L851.393 227.485C850.808 228.071 850.808 229.021 851.393 229.607C851.979 230.192 852.929 230.192 853.515 229.607L863.061 220.061ZM719 220.5H862V217.5H719V220.5Z" fill="black"/>
<path d="M1155.94 322.939C1155.35 323.525 1155.35 324.475 1155.94 325.061L1165.49 334.607C1166.07 335.192 1167.02 335.192 1167.61 334.607C1168.19 334.021 1168.19 333.071 1167.61 332.485L1159.12 324L1167.61 315.515C1168.19 314.929 1168.19 313.979 1167.61 313.393C1167.02 312.808 1166.07 312.808 1165.49 313.393L1155.94 322.939ZM1300 322.5H1157V325.5H1300V322.5Z" fill="black"/>
<path d="M530.939 720.939C530.354 721.525 530.354 722.475 530.939 723.061L540.485 732.607C541.071 733.192 542.021 733.192 542.607 732.607C543.192 732.021 543.192 731.071 542.607 730.485L534.121 722L542.607 713.515C543.192 712.929 543.192 711.979 542.607 711.393C542.021 710.808 541.071 710.808 540.485 711.393L530.939 720.939ZM675 720.5H532V723.5H675V720.5Z" fill="black"/>
<line x1="77.9884" y1="179.5" x2="336.988" y2="177.5" stroke="black" stroke-width="3"/>
<line x1="1224" y1="137.5" x2="964.996" y2="137.5" stroke="black" stroke-width="3"/>
<line x1="60.9884" y1="517.5" x2="319.988" y2="515.5" stroke="black" stroke-width="3"/>
<line x1="1207" y1="475.5" x2="947.996" y2="475.5" stroke="black" stroke-width="3"/>
<line x1="793.008" y1="458.5" x2="534" y2="458.5" stroke="black" stroke-width="3"/>
<line x1="203" y1="146.5" x2="308" y2="146.5" stroke="black" stroke-width="3"/>
<line x1="1195" y1="105.5" x2="1090" y2="105.5" stroke="black" stroke-width="3"/>
<line x1="500" y1="307.5" x2="395" y2="307.5" stroke="black" stroke-width="3"/>
<line x1="783" y1="108.5" x2="678" y2="108.5" stroke="black" stroke-width="3"/>
<line x1="340" y1="455.5" x2="445" y2="455.5" stroke="black" stroke-width="3"/>
<line x1="1332" y1="414.5" x2="1227" y2="414.5" stroke="black" stroke-width="3"/>
<line x1="847" y1="606.5" x2="742" y2="606.5" stroke="black" stroke-width="3"/>
<line x1="697" y1="630.5" x2="592" y2="630.5" stroke="black" stroke-width="3"/>
<line x1="133" y1="455.5" x2="238" y2="455.5" stroke="black" stroke-width="3"/>
<line x1="1125" y1="414.5" x2="1020" y2="414.5" stroke="black" stroke-width="3"/>
<line x1="32" y1="146.5" x2="56" y2="146.5" stroke="black" stroke-width="3"/>
<line x1="943" y1="105.5" x2="919" y2="105.5" stroke="black" stroke-width="3"/>
<line x1="223" y1="671.5" x2="247" y2="671.5" stroke="black" stroke-width="3"/>
<line x1="1134" y1="630.5" x2="1110" y2="630.5" stroke="black" stroke-width="3"/>
<line x1="722" y1="633.5" x2="698" y2="633.5" stroke="black" stroke-width="3"/>
<line x1="676" y1="582.5" x2="652" y2="582.5" stroke="black" stroke-width="3"/>
<line x1="73" y1="146.5" x2="148" y2="146.5" stroke="black" stroke-width="3"/>
<line x1="1035" y1="105.5" x2="960" y2="105.5" stroke="black" stroke-width="3"/>
<line x1="69" y1="630.5" x2="144" y2="630.5" stroke="black" stroke-width="3"/>
<line x1="1031" y1="589.5" x2="956" y2="589.5" stroke="black" stroke-width="3"/>
<line x1="589" y1="582.5" x2="514" y2="582.5" stroke="black" stroke-width="3"/>
<line x1="109" y1="249.5" x2="487" y2="249.5" stroke="black" stroke-width="3"/>
<line x1="487" y1="161.5" x2="865" y2="161.5" stroke="black" stroke-width="3"/>
<line x1="1374" y1="208.5" x2="996" y2="208.5" stroke="black" stroke-width="3"/>
<line x1="35" y1="690.5" x2="413" y2="690.5" stroke="black" stroke-width="3"/>
<line x1="1300" y1="649.5" x2="922" y2="649.5" stroke="black" stroke-width="3"/>
<line x1="44" y1="215.5" x2="132" y2="215.5" stroke="black" stroke-width="3"/>
<line x1="1019" y1="174.5" x2="931" y2="174.5" stroke="black" stroke-width="3"/>
<line x1="742" y1="314.5" x2="654" y2="314.5" stroke="black" stroke-width="3"/>
<line x1="66" y1="481.5" x2="154" y2="481.5" stroke="black" stroke-width="3"/>
<line x1="1041" y1="440.5" x2="953" y2="440.5" stroke="black" stroke-width="3"/>
<line x1="17" y1="261.5" x2="92" y2="261.5" stroke="black" stroke-width="3"/>
<line x1="979" y1="220.5" x2="904" y2="220.5" stroke="black" stroke-width="3"/>
<line x1="212" y1="630.5" x2="287" y2="630.5" stroke="black" stroke-width="3"/>
<line x1="1174" y1="589.5" x2="1099" y2="589.5" stroke="black" stroke-width="3"/>
<line x1="862" y1="369.5" x2="787" y2="369.5" stroke="black" stroke-width="3"/>
<line x1="241" y1="215.5" x2="284" y2="215.5" stroke="black" stroke-width="3"/>
<line x1="1171" y1="174.5" x2="1128" y2="174.5" stroke="black" stroke-width="3"/>
<line x1="508" y1="554.5" x2="465" y2="554.5" stroke="black" stroke-width="3"/>
<line x1="128" y1="410.5" x2="171" y2="410.5" stroke="black" stroke-width="3"/>
<line x1="1058" y1="369.5" x2="1015" y2="369.5" stroke="black" stroke-width="3"/>
<line x1="719" y1="371.5" x2="676" y2="371.5" stroke="black" stroke-width="3"/>
<line x1="144" y1="607.5" x2="187" y2="607.5" stroke="black" stroke-width="3"/>
<line x1="1074" y1="566.5" x2="1031" y2="566.5" stroke="black" stroke-width="3"/>
<line x1="529" y1="371.5" x2="486" y2="371.5" stroke="black" stroke-width="3"/>
<line x1="256" y1="277.5" x2="318" y2="277.5" stroke="black" stroke-width="3"/>
<line x1="1205" y1="236.5" x2="1143" y2="236.5" stroke="black" stroke-width="3"/>
<line x1="463" y1="137.5" x2="401" y2="137.5" stroke="black" stroke-width="3"/>
<line x1="596" y1="220.5" x2="534" y2="220.5" stroke="black" stroke-width="3"/>
<line x1="258" y1="410.5" x2="320" y2="410.5" stroke="black" stroke-width="3"/>
<line x1="1207" y1="369.5" x2="1145" y2="369.5" stroke="black" stroke-width="3"/>
<line x1="773" y1="425.5" x2="711" y2="425.5" stroke="black" stroke-width="3"/>
<line x1="82" y1="561.5" x2="144" y2="561.5" stroke="black" stroke-width="3"/>
<line x1="1031" y1="520.5" x2="969" y2="520.5" stroke="black" stroke-width="3"/>
<line x1="676" y1="520.5" x2="614" y2="520.5" stroke="black" stroke-width="3"/>
<line x1="92" y1="277.5" x2="208" y2="277.5" stroke="black" stroke-width="3"/>
<line x1="1095" y1="236.5" x2="979" y2="236.5" stroke="black" stroke-width="3"/>
<line x1="683" y1="239.5" x2="567" y2="239.5" stroke="black" stroke-width="3"/>
<line x1="41" y1="666.5" x2="157" y2="666.5" stroke="black" stroke-width="3"/>
<line x1="1044" y1="625.5" x2="928" y2="625.5" stroke="black" stroke-width="3"/>
<line x1="865" y1="693.5" x2="749" y2="693.5" stroke="black" stroke-width="3"/>
<line x1="18.9834" y1="320.5" x2="199.983" y2="318.5" stroke="black" stroke-width="3"/>
<line x1="1087.01" y1="278.5" x2="905.994" y2="278.5" stroke="black" stroke-width="3"/>
<line x1="56.9834" y1="368.5" x2="237.983" y2="366.5" stroke="black" stroke-width="3"/>
<line x1="1125.01" y1="326.5" x2="943.994" y2="326.5" stroke="black" stroke-width="3"/>
<line x1="879.011" y1="69.5" x2="698" y2="69.5" stroke="black" stroke-width="3"/>
<line x1="65.9834" y1="765.5" x2="246.983" y2="763.5" stroke="black" stroke-width="3"/>
<line x1="1134.01" y1="723.5" x2="952.994" y2="723.5" stroke="black" stroke-width="3"/>
<line x1="46" y1="108.5" x2="109" y2="108.5" stroke="black" stroke-width="3"/>
<line x1="996" y1="67.5" x2="933" y2="67.5" stroke="black" stroke-width="3"/>
<line x1="584" y1="70.5" x2="521" y2="70.5" stroke="black" stroke-width="3"/>
<line x1="330" y1="630.5" x2="393" y2="630.5" stroke="black" stroke-width="3"/>
<line x1="1280" y1="589.5" x2="1217" y2="589.5" stroke="black" stroke-width="3"/>
<line x1="805" y1="266.5" x2="742" y2="266.5" stroke="black" stroke-width="3"/>
<rect x="553.5" y="253.5" width="58" height="58" rx="29" stroke="black" stroke-width="3"/>
<rect x="173.5" y="25.5" width="58" height="58" rx="29" stroke="black" stroke-width="3"/>
<rect x="1264.5" y="137.5" width="58" height="58" rx="29" stroke="black" stroke-width="3"/>
<rect x="440.5" y="591.5" width="58" height="58" rx="29" stroke="black" stroke-width="3"/>
<rect x="810.5" y="500.5" width="58" height="58" rx="29" stroke="black" stroke-width="3"/>
<path d="M567.156 283.422L566.394 281.573L561.864 283.44L566.407 285.276L567.156 283.422ZM579.383 288.363H581.383V287.014L580.132 286.509L579.383 288.363ZM579.383 292.191L578.542 294.006L581.383 295.322V292.191H579.383ZM563.406 284.789H561.406V286.067L562.565 286.604L563.406 284.789ZM563.406 281.938L562.567 280.122L561.406 280.658V281.938H563.406ZM579.383 274.555H581.383V271.427L578.544 272.739L579.383 274.555ZM579.383 278.383L580.145 280.232L581.383 279.722V278.383H579.383ZM566.407 285.276L578.633 290.218L580.132 286.509L567.906 281.568L566.407 285.276ZM577.383 288.363V292.191H581.383V288.363H577.383ZM580.224 290.377L564.247 282.974L562.565 286.604L578.542 294.006L580.224 290.377ZM565.406 284.789V281.938H561.406V284.789H565.406ZM564.245 283.753L580.222 276.37L578.544 272.739L562.567 280.122L564.245 283.753ZM577.383 274.555V278.383H581.383V274.555H577.383ZM578.621 276.534L566.394 281.573L567.918 285.271L580.145 280.232L578.621 276.534ZM597.879 283.305L598.616 285.164L603.334 283.294L598.609 281.443L597.879 283.305ZM584.969 278.246H582.969V279.61L584.239 280.108L584.969 278.246ZM584.969 274.535L585.778 272.706L582.969 271.463V274.535H584.969ZM601.648 281.918H603.648V280.616L602.458 280.089L601.648 281.918ZM601.648 284.77L602.46 286.598L603.648 286.07V284.77H601.648ZM584.969 292.172H582.969V295.248L585.78 294L584.969 292.172ZM584.969 288.422L584.232 286.563L582.969 287.063V288.422H584.969ZM598.609 281.443L585.698 276.384L584.239 280.108L597.149 285.167L598.609 281.443ZM586.969 278.246V274.535H582.969V278.246H586.969ZM584.159 276.364L600.839 283.747L602.458 280.089L585.778 272.706L584.159 276.364ZM599.648 281.918V284.77H603.648V281.918H599.648ZM600.837 282.941L584.157 290.344L585.78 294L602.46 286.598L600.837 282.941ZM586.969 292.172V288.422H582.969V292.172H586.969ZM585.706 290.281L598.616 285.164L597.142 281.445L584.232 286.563L585.706 290.281Z" fill="black"/>
<path d="M202.215 38.4688V40.4688H204.215V38.4688H202.215ZM198.484 38.4688V36.4688H196.484V38.4688H198.484ZM198.484 71.125H196.484V73.125H198.484V71.125ZM202.215 71.125H204.215V69.125H202.215V71.125ZM202.215 74.0938V76.0938H204.215V74.0938H202.215ZM194.852 74.0938H192.852V76.0938H194.852V74.0938ZM194.852 35.5V33.5H192.852V35.5H194.852ZM202.215 35.5H204.215V33.5H202.215V35.5ZM202.215 36.4688H198.484V40.4688H202.215V36.4688ZM196.484 38.4688V71.125H200.484V38.4688H196.484ZM198.484 73.125H202.215V69.125H198.484V73.125ZM200.215 71.125V74.0938H204.215V71.125H200.215ZM202.215 72.0938H194.852V76.0938H202.215V72.0938ZM196.852 74.0938V35.5H192.852V74.0938H196.852ZM194.852 37.5H202.215V33.5H194.852V37.5ZM200.215 35.5V38.4688H204.215V35.5H200.215ZM202.801 35.5V33.5H200.801V35.5H202.801ZM210.184 35.5H212.184V33.5H210.184V35.5ZM210.184 74.0938V76.0938H212.184V74.0938H210.184ZM202.801 74.0938H200.801V76.0938H202.801V74.0938ZM202.801 71.125V69.125H200.801V71.125H202.801ZM206.57 71.125V73.125H208.57V71.125H206.57ZM206.57 38.4688H208.57V36.4688H206.57V38.4688ZM202.801 38.4688H200.801V40.4688H202.801V38.4688ZM202.801 37.5H210.184V33.5H202.801V37.5ZM208.184 35.5V74.0938H212.184V35.5H208.184ZM210.184 72.0938H202.801V76.0938H210.184V72.0938ZM204.801 74.0938V71.125H200.801V74.0938H204.801ZM202.801 73.125H206.57V69.125H202.801V73.125ZM208.57 71.125V38.4688H204.57V71.125H208.57ZM206.57 36.4688H202.801V40.4688H206.57V36.4688ZM204.801 38.4688V35.5H200.801V38.4688H204.801Z" fill="black"/>
<path d="M1283.77 157.98L1281.85 157.418L1281.85 157.426L1283.77 157.98ZM1292.17 145.91L1294.08 145.315L1293.35 142.991L1291.21 144.152L1292.17 145.91ZM1292.91 148.293L1294.13 149.88L1295.23 149.03L1294.82 147.698L1292.91 148.293ZM1288.22 154.973L1286.37 154.216L1286.37 154.223L1288.22 154.973ZM1286.23 165.031L1284.23 164.968L1284.23 164.988L1284.23 165.008L1286.23 165.031ZM1286.21 166.691L1284.21 166.668L1284.21 166.68V166.691H1286.21ZM1288.96 179.777L1287.17 180.667L1287.18 180.672L1288.96 179.777ZM1292.91 184.973L1294.81 185.61L1295.25 184.302L1294.18 183.427L1292.91 184.973ZM1292.17 187.18L1291.2 188.927L1293.3 190.097L1294.06 187.817L1292.17 187.18ZM1287.21 182.336L1285.56 183.476L1285.57 183.478L1287.21 182.336ZM1284.6 166.457C1284.6 163.694 1284.96 161.055 1285.69 158.535L1281.85 157.426C1281.01 160.322 1280.6 163.335 1280.6 166.457H1284.6ZM1285.69 158.543C1286.42 156.037 1287.51 153.777 1288.94 151.751L1285.67 149.444C1283.98 151.845 1282.7 154.507 1281.85 157.418L1285.69 158.543ZM1288.94 151.751C1290.39 149.691 1291.8 148.385 1293.12 147.668L1291.21 144.152C1289.18 145.258 1287.34 147.078 1285.67 149.444L1288.94 151.751ZM1290.26 146.505L1291 148.888L1294.82 147.698L1294.08 145.315L1290.26 146.505ZM1291.69 146.706C1289.43 148.443 1287.68 151.004 1286.37 154.216L1290.07 155.729C1291.21 152.952 1292.59 151.06 1294.13 149.88L1291.69 146.706ZM1286.37 154.223C1285.06 157.466 1284.35 161.056 1284.23 164.968L1288.23 165.094C1288.34 161.584 1288.97 158.469 1290.08 155.722L1286.37 154.223ZM1284.23 165.008L1284.21 166.668L1288.21 166.715L1288.23 165.055L1284.23 165.008ZM1284.21 166.691C1284.21 171.96 1285.17 176.639 1287.17 180.667L1290.76 178.888C1289.08 175.52 1288.21 171.475 1288.21 166.691H1284.21ZM1287.18 180.672C1288.38 183.074 1289.85 185.051 1291.64 186.519L1294.18 183.427C1292.92 182.394 1291.77 180.907 1290.75 178.883L1287.18 180.672ZM1291.01 184.335L1290.27 186.542L1294.06 187.817L1294.81 185.61L1291.01 184.335ZM1293.14 185.432C1291.76 184.663 1290.31 183.302 1288.85 181.194L1285.57 183.478C1287.25 185.901 1289.11 187.769 1291.2 188.927L1293.14 185.432ZM1288.85 181.196C1286.04 177.15 1284.6 172.268 1284.6 166.457H1280.6C1280.6 172.963 1282.23 178.668 1285.56 183.476L1288.85 181.196ZM1303.59 175.012L1301.67 174.459L1301.67 174.465L1303.59 175.012ZM1300.1 182.375L1298.46 181.229L1298.45 181.235L1300.1 182.375ZM1295.18 187.18L1293.29 187.832L1294.06 190.081L1296.14 188.93L1295.18 187.18ZM1294.41 184.973L1293.2 183.385L1292.05 184.262L1292.52 185.625L1294.41 184.973ZM1299.24 177.824L1297.37 177.118L1297.37 177.122L1299.24 177.824ZM1301.11 167.043L1303.11 167.056V167.043H1301.11ZM1300.25 158.801L1298.31 159.273L1298.31 159.276L1300.25 158.801ZM1297.85 152.473L1296.1 153.43L1296.1 153.44L1297.85 152.473ZM1294.41 148.117L1292.52 147.465L1292.07 148.784L1293.15 149.667L1294.41 148.117ZM1295.18 145.91L1296.14 144.16L1294.06 143.008L1293.29 145.258L1295.18 145.91ZM1300.08 150.676L1298.44 151.818L1298.44 151.825L1300.08 150.676ZM1303.57 158.039L1301.65 158.59L1301.65 158.598L1303.57 158.039ZM1302.75 166.652C1302.75 169.377 1302.39 171.977 1301.67 174.459L1305.52 175.565C1306.34 172.708 1306.75 169.735 1306.75 166.652H1302.75ZM1301.67 174.465C1300.98 176.908 1299.91 179.159 1298.46 181.229L1301.74 183.521C1303.44 181.085 1304.7 178.428 1305.52 175.559L1301.67 174.465ZM1298.45 181.235C1297 183.329 1295.57 184.675 1294.21 185.429L1296.14 188.93C1298.22 187.784 1300.07 185.926 1301.74 183.515L1298.45 181.235ZM1297.07 186.527L1296.3 184.32L1292.52 185.625L1293.29 187.832L1297.07 186.527ZM1295.63 186.56C1298.02 184.727 1299.81 181.983 1301.11 178.526L1297.37 177.122C1296.24 180.124 1294.82 182.145 1293.2 183.385L1295.63 186.56ZM1301.11 178.531C1302.43 175.038 1303.09 171.206 1303.11 167.056L1299.11 167.03C1299.09 170.771 1298.5 174.126 1297.37 177.118L1301.11 178.531ZM1303.11 167.043V166.418H1299.11V167.043H1303.11ZM1303.11 166.418C1303.11 163.544 1302.81 160.844 1302.2 158.326L1298.31 159.276C1298.84 161.445 1299.11 163.823 1299.11 166.418H1303.11ZM1302.2 158.328C1301.59 155.823 1300.73 153.543 1299.6 151.506L1296.1 153.44C1297.03 155.126 1297.77 157.065 1298.31 159.273L1302.2 158.328ZM1299.61 151.515C1298.5 149.488 1297.2 147.813 1295.68 146.568L1293.15 149.667C1294.18 150.505 1295.17 151.733 1296.1 153.43L1299.61 151.515ZM1296.3 148.77L1297.07 146.563L1293.29 145.258L1292.52 147.465L1296.3 148.77ZM1294.21 147.66C1295.58 148.417 1297 149.753 1298.44 151.818L1301.72 149.533C1300.06 147.146 1298.21 145.304 1296.14 144.16L1294.21 147.66ZM1298.44 151.825C1299.87 153.864 1300.94 156.116 1301.65 158.59L1305.5 157.488C1304.67 154.598 1303.41 151.94 1301.72 149.527L1298.44 151.825ZM1301.65 158.598C1302.38 161.083 1302.75 163.764 1302.75 166.652H1306.75C1306.75 163.421 1306.33 160.36 1305.49 157.48L1301.65 158.598Z" fill="black"/>
<path d="M468.344 641.148L467.8 643.073L469.642 643.593L470.243 641.776L468.344 641.148ZM463.129 637.926L461.552 639.157L461.554 639.158L463.129 637.926ZM457.25 623.395H455.25V625.395H457.25V623.395ZM457.25 620.562V618.562H455.25V620.562H457.25ZM461.391 611.773L459.391 611.752L459.391 611.763V611.773H461.391ZM463.129 606.012L461.551 604.783L461.549 604.785L463.129 606.012ZM468.344 602.809L470.243 602.181L469.641 600.359L467.796 600.885L468.344 602.809ZM469.086 605.055L469.696 606.959L471.618 606.343L470.985 604.427L469.086 605.055ZM461.742 621.988L460.802 620.223L457.508 621.978L460.793 623.749L461.742 621.988ZM465.004 632.242H463.004V632.253L463.004 632.264L465.004 632.242ZM469.086 638.902L470.985 639.53L471.618 637.614L469.696 636.998L469.086 638.902ZM468.887 639.224C466.884 638.658 465.553 637.778 464.704 636.693L461.554 639.158C463.048 641.068 465.194 642.337 467.8 643.073L468.887 639.224ZM464.705 636.695C463.894 635.655 463.391 634.164 463.391 632.027H459.391C459.391 634.787 460.046 637.227 461.552 639.157L464.705 636.695ZM463.391 632.027V628.141H459.391V632.027H463.391ZM463.391 628.141C463.391 626.312 462.998 624.567 461.863 623.266C460.682 621.913 459.015 621.395 457.25 621.395V625.395C458.246 625.395 458.649 625.667 458.848 625.896C459.093 626.177 459.391 626.805 459.391 628.141H463.391ZM459.25 623.395V620.562H455.25V623.395H459.25ZM457.25 622.562C459.012 622.562 460.678 622.047 461.86 620.699C462.997 619.401 463.391 617.66 463.391 615.836H459.391C459.391 617.163 459.094 617.785 458.851 618.063C458.652 618.29 458.248 618.562 457.25 618.562V622.562ZM463.391 615.836V611.773H459.391V615.836H463.391ZM463.391 611.795C463.413 609.722 463.912 608.263 464.708 607.239L461.549 604.785C460.08 606.677 459.42 609.06 459.391 611.752L463.391 611.795ZM464.707 607.241C465.523 606.192 466.847 605.315 468.892 604.732L467.796 600.885C465.179 601.631 463.026 602.889 461.551 604.783L464.707 607.241ZM466.445 603.436L467.187 605.682L470.985 604.427L470.243 602.181L466.445 603.436ZM468.475 603.15C466.692 603.722 465.259 604.798 464.309 606.386C463.384 607.93 463.004 609.807 463.004 611.871H467.004C467.004 610.263 467.304 609.169 467.74 608.441C468.15 607.756 468.759 607.26 469.696 606.959L468.475 603.15ZM463.004 611.871V615.816H467.004V611.871H463.004ZM463.004 615.816C463.004 618.21 462.182 619.488 460.802 620.223L462.683 623.753C465.652 622.171 467.004 619.334 467.004 615.816H463.004ZM460.793 623.749C462.175 624.493 463.004 625.791 463.004 628.219H467.004C467.004 624.683 465.659 621.827 462.691 620.228L460.793 623.749ZM463.004 628.219V632.242H467.004V628.219H463.004ZM463.004 632.264C463.026 634.286 463.421 636.125 464.349 637.638C465.3 639.191 466.719 640.244 468.476 640.807L469.696 636.998C468.771 636.701 468.168 636.215 467.759 635.548C467.326 634.841 467.021 633.779 467.004 632.22L463.004 632.264ZM467.187 638.275L466.445 640.521L470.243 641.776L470.985 639.53L467.187 638.275ZM469.926 638.902L469.316 636.998L467.378 637.618L468.032 639.545L469.926 638.902ZM474.027 632.438L476.027 632.49L476.027 632.464V632.438H474.027ZM477.562 621.988L478.404 623.802L482.361 621.966L478.388 620.167L477.562 621.988ZM469.945 605.055L468.046 604.427L467.413 606.343L469.335 606.959L469.945 605.055ZM470.688 602.809L471.231 600.884L469.389 600.364L468.788 602.181L470.688 602.809ZM475.883 605.992L474.312 607.23L474.317 607.236L475.883 605.992ZM477.641 611.793H479.641L479.641 611.782L477.641 611.793ZM481.781 620.562H483.781V618.562H481.781V620.562ZM481.781 623.395V625.395H483.781V623.395H481.781ZM475.863 637.965L474.306 636.71L474.299 636.719L475.863 637.965ZM470.688 641.148L468.793 641.791L469.405 643.595L471.237 643.071L470.688 641.148ZM470.536 640.807C472.261 640.254 473.665 639.231 474.622 637.723C475.557 636.25 475.975 634.459 476.027 632.49L472.028 632.385C471.989 633.88 471.677 634.898 471.245 635.58C470.835 636.226 470.233 636.704 469.316 636.998L470.536 640.807ZM476.027 632.438V628.141H472.027V632.438H476.027ZM476.027 628.141C476.027 626.893 476.272 625.994 476.645 625.343C477.008 624.711 477.562 624.193 478.404 623.802L476.721 620.174C475.206 620.877 473.992 621.931 473.177 623.35C472.372 624.751 472.027 626.38 472.027 628.141H476.027ZM478.388 620.167C477.554 619.789 477.006 619.28 476.645 618.653C476.273 618.005 476.027 617.1 476.027 615.836H472.027C472.027 617.606 472.371 619.243 473.177 620.646C473.995 622.069 475.215 623.12 476.737 623.81L478.388 620.167ZM476.027 615.836V611.871H472.027V615.836H476.027ZM476.027 611.871C476.027 609.807 475.647 607.93 474.723 606.386C473.772 604.798 472.34 603.722 470.556 603.15L469.335 606.959C470.272 607.26 470.881 607.756 471.291 608.441C471.727 609.169 472.027 610.263 472.027 611.871H476.027ZM471.844 605.682L472.587 603.436L468.788 602.181L468.046 604.427L471.844 605.682ZM470.144 604.733C472.156 605.302 473.479 606.172 474.312 607.23L477.454 604.755C475.969 602.869 473.829 601.618 471.231 600.884L470.144 604.733ZM474.317 607.236C475.124 608.253 475.629 609.71 475.641 611.804L479.641 611.782C479.626 609.058 478.959 606.649 477.449 604.748L474.317 607.236ZM475.641 611.793V615.895H479.641V611.793H475.641ZM475.641 615.895C475.641 617.704 476.037 619.434 477.18 620.723C478.363 622.057 480.026 622.562 481.781 622.562V618.562C480.776 618.562 480.369 618.29 480.172 618.068C479.935 617.801 479.641 617.197 479.641 615.895H475.641ZM479.781 620.562V623.395H483.781V620.562H479.781ZM481.781 621.395C480.016 621.395 478.349 621.913 477.169 623.266C476.034 624.567 475.641 626.312 475.641 628.141H479.641C479.641 626.805 479.938 626.177 480.183 625.896C480.382 625.667 480.786 625.395 481.781 625.395V621.395ZM475.641 628.141V632.086H479.641V628.141H475.641ZM475.641 632.086C475.641 634.214 475.129 635.688 474.306 636.71L477.421 639.219C478.967 637.299 479.641 634.854 479.641 632.086H475.641ZM474.299 636.719C473.447 637.788 472.121 638.659 470.138 639.225L471.237 643.071C473.811 642.336 475.936 641.084 477.428 639.211L474.299 636.719ZM472.582 640.506L471.82 638.26L468.032 639.545L468.793 641.791L472.582 640.506Z" fill="black"/>
<path d="M821.867 530.566L821.105 528.717L816.575 530.585L821.118 532.421L821.867 530.566ZM831.037 534.272H833.037V532.924L831.787 532.418L831.037 534.272ZM831.037 537.144L830.196 538.958L833.037 540.274V537.144H831.037ZM819.055 531.592H817.055V532.869L818.214 533.406L819.055 531.592ZM819.055 529.453L818.216 527.638L817.055 528.174V529.453H819.055ZM831.037 523.916H833.037V520.789L830.198 522.1L831.037 523.916ZM831.037 526.787L831.799 528.636L833.037 528.126V526.787H831.037ZM821.118 532.421L830.288 536.127L831.787 532.418L822.617 528.712L821.118 532.421ZM829.037 534.272V537.144H833.037V534.272H829.037ZM831.878 535.329L819.895 529.777L818.214 533.406L830.196 538.958L831.878 535.329ZM821.055 531.592V529.453H817.055V531.592H821.055ZM819.894 531.269L831.876 525.732L830.198 522.1L818.216 527.638L819.894 531.269ZM829.037 523.916V526.787H833.037V523.916H829.037ZM830.275 524.938L821.105 528.717L822.629 532.416L831.799 528.636L830.275 524.938ZM835.856 541.831V543.831H837.231L837.724 542.548L835.856 541.831ZM833.527 541.831L831.661 541.113L830.615 543.831H833.527V541.831ZM842.434 518.672V516.672H841.06L840.567 517.954L842.434 518.672ZM844.748 518.672L846.615 519.389L847.658 516.672H844.748V518.672ZM835.856 539.831H833.527V543.831H835.856V539.831ZM835.394 542.549L844.3 519.39L840.567 517.954L831.661 541.113L835.394 542.549ZM842.434 520.672H844.748V516.672H842.434V520.672ZM842.881 517.955L833.989 541.114L837.724 542.548L846.615 519.389L842.881 517.955ZM857.272 530.479L858.009 532.338L862.727 530.468L858.002 528.616L857.272 530.479ZM847.59 526.685H845.59V528.049L846.86 528.547L847.59 526.685ZM847.59 523.901L848.399 522.073L845.59 520.829V523.901H847.59ZM860.1 529.438H862.1V528.137L860.909 527.61L860.1 529.438ZM860.1 531.577L860.911 533.405L862.1 532.878V531.577H860.1ZM847.59 537.129H845.59V540.205L848.401 538.957L847.59 537.129ZM847.59 534.316L846.853 532.457L845.59 532.958V534.316H847.59ZM858.002 528.616L848.319 524.822L846.86 528.547L856.543 532.341L858.002 528.616ZM849.59 526.685V523.901H845.59V526.685H849.59ZM846.78 525.73L859.29 531.267L860.909 527.61L848.399 522.073L846.78 525.73ZM858.1 529.438V531.577H862.1V529.438H858.1ZM859.288 529.749L846.779 535.301L848.401 538.957L860.911 533.405L859.288 529.749ZM849.59 537.129V534.316H845.59V537.129H849.59ZM848.327 536.176L858.009 532.338L856.536 528.619L846.853 532.457L848.327 536.176Z" fill="black"/>
<rect opacity="0.6" x="949.5" y="355.5" width="53" height="53" rx="4.5" stroke="black" stroke-width="3"/>
<rect opacity="0.6" x="159.5" y="189.5" width="53" height="53" rx="4.5" stroke="black" stroke-width="3"/>
<rect opacity="0.6" x="1178.5" y="699.5" width="53" height="53" rx="4.5" stroke="black" stroke-width="3"/>
<rect opacity="0.6" x="244.5" y="554.5" width="53" height="53" rx="4.5" stroke="black" stroke-width="3"/>
<rect opacity="0.6" x="1333.5" y="32.5" width="53" height="53" rx="4.5" stroke="black" stroke-width="3"/>
<path opacity="0.6" d="M986.949 370.648V372.648H988.949V370.648H986.949ZM977.809 370.648V368.648H975.809V370.648H977.809ZM977.809 396V398H979.809V396H977.809ZM974.078 396H972.078V398H974.078V396ZM974.078 370.648H976.078V368.648H974.078V370.648ZM964.957 370.648H962.957V372.648H964.957V370.648ZM964.957 367.562V365.562H962.957V367.562H964.957ZM986.949 367.562H988.949V365.562H986.949V367.562ZM986.949 368.648H977.809V372.648H986.949V368.648ZM975.809 370.648V396H979.809V370.648H975.809ZM977.809 394H974.078V398H977.809V394ZM976.078 396V370.648H972.078V396H976.078ZM974.078 368.648H964.957V372.648H974.078V368.648ZM966.957 370.648V367.562H962.957V370.648H966.957ZM964.957 369.562H986.949V365.562H964.957V369.562ZM984.949 367.562V370.648H988.949V367.562H984.949Z" fill="black"/>
<path opacity="0.6" d="M181.07 226.934H179.07V228.934H181.07V226.934ZM194.547 226.934H196.547V224.934H194.547V226.934ZM194.547 230V232H196.547V230H194.547ZM177.301 230H175.301V232H177.301V230ZM177.301 201.562V199.562H175.301V201.562H177.301ZM181.07 201.562H183.07V199.562H181.07V201.562ZM181.07 228.934H194.547V224.934H181.07V228.934ZM192.547 226.934V230H196.547V226.934H192.547ZM194.547 228H177.301V232H194.547V228ZM179.301 230V201.562H175.301V230H179.301ZM177.301 203.562H181.07V199.562H177.301V203.562ZM179.07 201.562V226.934H183.07V201.562H179.07Z" fill="black"/>
<path opacity="0.6" d="M1196.3 740H1194.3V742H1196.3V740ZM1196.3 711.562V709.562H1194.3V711.562H1196.3ZM1212.55 713.477L1211.28 715.02L1211.29 715.026L1212.55 713.477ZM1213.76 722.676L1215.37 723.869L1215.37 723.859L1213.76 722.676ZM1210.68 725.039L1209.89 723.202L1204.68 725.439L1210.14 726.965L1210.68 725.039ZM1214.31 727.5L1212.69 728.68L1212.7 728.69L1212.71 728.7L1214.31 727.5ZM1213.18 737.812L1211.85 736.312L1213.18 737.812ZM1200.05 726.699V724.699H1198.05V726.699H1200.05ZM1200.05 736.934H1198.05V738.934H1200.05V736.934ZM1210.36 735.586L1211.7 737.075L1211.7 737.074L1210.36 735.586ZM1200.05 723.691H1198.05V725.691H1200.05V723.691ZM1209.64 722.461L1208.36 720.921L1208.35 720.93L1209.64 722.461ZM1209.76 715.723L1208.52 717.295L1208.53 717.301L1208.54 717.306L1209.76 715.723ZM1200.05 714.648V712.648H1198.05V714.648H1200.05ZM1198.3 740V711.562H1194.3V740H1198.3ZM1196.3 713.562H1205.6V709.562H1196.3V713.562ZM1205.6 713.562C1208.46 713.562 1210.24 714.161 1211.28 715.02L1213.82 711.933C1211.77 710.24 1208.91 709.562 1205.6 709.562V713.562ZM1211.29 715.026C1212.27 715.832 1212.89 717.084 1212.89 719.141H1216.89C1216.89 716.198 1215.95 713.673 1213.82 711.927L1211.29 715.026ZM1212.89 719.141C1212.89 720.062 1212.64 720.821 1212.15 721.492L1215.37 723.859C1216.39 722.473 1216.89 720.876 1216.89 719.141H1212.89ZM1212.16 721.482C1211.64 722.183 1210.9 722.764 1209.89 723.202L1211.47 726.876C1213.05 726.194 1214.38 725.2 1215.37 723.869L1212.16 721.482ZM1210.14 726.965C1211.27 727.282 1212.09 727.856 1212.69 728.68L1215.92 726.32C1214.76 724.723 1213.15 723.655 1211.21 723.113L1210.14 726.965ZM1212.71 728.7C1213.32 729.513 1213.66 730.511 1213.66 731.797H1217.66C1217.66 729.749 1217.1 727.883 1215.91 726.3L1212.71 728.7ZM1213.66 731.797C1213.66 733.875 1213.01 735.295 1211.85 736.312L1214.5 739.313C1216.65 737.413 1217.66 734.823 1217.66 731.797H1213.66ZM1211.85 736.312C1210.68 737.346 1208.88 738 1206.16 738V742C1209.49 742 1212.36 741.195 1214.5 739.313L1211.85 736.312ZM1206.16 738H1196.3V742H1206.16V738ZM1198.05 726.699V736.934H1202.05V726.699H1198.05ZM1200.05 738.934H1206.24V734.934H1200.05V738.934ZM1206.24 738.934C1208.33 738.934 1210.23 738.39 1211.7 737.075L1209.03 734.096C1208.49 734.578 1207.64 734.934 1206.24 734.934V738.934ZM1211.7 737.074C1213.21 735.72 1213.89 733.89 1213.89 731.836H1209.89C1209.89 732.959 1209.55 733.629 1209.03 734.097L1211.7 737.074ZM1213.89 731.836C1213.89 729.77 1213.32 727.866 1211.84 726.511C1210.4 725.186 1208.43 724.699 1206.3 724.699V728.699C1207.89 728.699 1208.72 729.069 1209.14 729.456C1209.53 729.813 1209.89 730.477 1209.89 731.836H1213.89ZM1206.3 724.699H1200.05V728.699H1206.3V724.699ZM1200.05 725.691H1205.71V721.691H1200.05V725.691ZM1205.71 725.691C1207.69 725.691 1209.5 725.193 1210.93 723.992L1208.35 720.93C1207.83 721.369 1207.02 721.691 1205.71 721.691V725.691ZM1210.92 724.001C1212.41 722.762 1213.12 721.059 1213.12 719.121H1209.12C1209.12 719.996 1208.85 720.52 1208.36 720.921L1210.92 724.001ZM1213.12 719.121C1213.12 717.176 1212.54 715.346 1210.98 714.139L1208.54 717.306C1208.8 717.506 1209.12 717.941 1209.12 719.121H1213.12ZM1210.99 714.15C1209.57 713.033 1207.66 712.648 1205.6 712.648V716.648C1207.26 716.648 1208.12 716.98 1208.52 717.295L1210.99 714.15ZM1205.6 712.648H1200.05V716.648H1205.6V712.648ZM1198.05 714.648V723.691H1202.05V714.648H1198.05Z" fill="black"/>
<path opacity="0.6" d="M270.973 580.84L269.196 581.758L270.968 585.185L272.747 581.762L270.973 580.84ZM278.395 566.562V564.562H277.18L276.62 565.64L278.395 566.562ZM282.652 566.562L284.405 567.526L286.034 564.562H282.652V566.562ZM272.848 584.395L271.095 583.431L270.848 583.881V584.395H272.848ZM272.848 595V597H274.848V595H272.848ZM269.098 595H267.098V597H269.098V595ZM269.098 584.395H271.098V583.881L270.85 583.431L269.098 584.395ZM259.293 566.562V564.562H255.911L257.54 567.526L259.293 566.562ZM263.59 566.562L265.366 565.644L264.807 564.562H263.59V566.562ZM272.747 581.762L280.169 567.485L276.62 565.64L269.198 579.917L272.747 581.762ZM278.395 568.562H282.652V564.562H278.395V568.562ZM280.9 565.599L271.095 583.431L274.6 585.358L284.405 567.526L280.9 565.599ZM270.848 584.395V595H274.848V584.395H270.848ZM272.848 593H269.098V597H272.848V593ZM271.098 595V584.395H267.098V595H271.098ZM270.85 583.431L261.046 565.599L257.54 567.526L267.345 585.358L270.85 583.431ZM259.293 568.562H263.59V564.562H259.293V568.562ZM261.813 567.481L269.196 581.758L272.749 579.921L265.366 565.644L261.813 567.481Z" fill="black"/>
<path opacity="0.6" d="M1367.38 59.8555V61.8555H1369.38V59.8555H1367.38ZM1355.05 59.8555V57.8555H1353.05V59.8555H1355.05ZM1355.05 69.9336H1353.05V71.9336H1355.05V69.9336ZM1369.37 69.9336H1371.37V67.9336H1369.37V69.9336ZM1369.37 73V75H1371.37V73H1369.37ZM1351.3 73H1349.3V75H1351.3V73ZM1351.3 44.5625V42.5625H1349.3V44.5625H1351.3ZM1369.17 44.5625H1371.17V42.5625H1369.17V44.5625ZM1369.17 47.6484V49.6484H1371.17V47.6484H1369.17ZM1355.05 47.6484V45.6484H1353.05V47.6484H1355.05ZM1355.05 56.7891H1353.05V58.7891H1355.05V56.7891ZM1367.38 56.7891H1369.38V54.7891H1367.38V56.7891ZM1367.38 57.8555H1355.05V61.8555H1367.38V57.8555ZM1353.05 59.8555V69.9336H1357.05V59.8555H1353.05ZM1355.05 71.9336H1369.37V67.9336H1355.05V71.9336ZM1367.37 69.9336V73H1371.37V69.9336H1367.37ZM1369.37 71H1351.3V75H1369.37V71ZM1353.3 73V44.5625H1349.3V73H1353.3ZM1351.3 46.5625H1369.17V42.5625H1351.3V46.5625ZM1367.17 44.5625V47.6484H1371.17V44.5625H1367.17ZM1369.17 45.6484H1355.05V49.6484H1369.17V45.6484ZM1353.05 47.6484V56.7891H1357.05V47.6484H1353.05ZM1355.05 58.7891H1367.38V54.7891H1355.05V58.7891ZM1365.38 56.7891V59.8555H1369.38V56.7891H1365.38Z" fill="black"/>
<path d="M680.29 666.236L705.163 709.403C709.574 717.058 716.147 723.24 724.058 727.173C763.649 746.856 749.64 806.5 705.426 806.5H640C614.319 806.5 593.5 785.681 593.5 760V689.451C593.5 641.855 656.528 624.996 680.29 666.236Z" stroke="black" stroke-width="3"/>
<rect x="1.5" y="366.5" width="55" height="295" rx="27.5" stroke="black" stroke-width="3"/>
</svg>
